<svg xmlns="http://www.w3.org/2000/svg" viewBox="0 0 48 48" width="24" height="24" style="border-color: rgba(187,187,187,1);border-width: 0px;border-style: solid" filter="none">
    <rect width="48" height="48" fill="#101010" fill-opacity="0.01" stroke="none"></rect><path d="M31 24V11C31 7.13401 27.866 4 24 4C20.134 4 17 7.13401 17 11V24C17 27.866 20.134 31 24 31C27.866 31 31 27.866 31 24Z" stroke="#101010" stroke-width="4" stroke-linejoin="round" fill="none"></path><path d="M9 23C9 31.2843 15.7157 38 24 38C25.7532 38 27.4361 37.6992 29 37.1465M39 23C39 25.1333 38.5547 27.1626 37.7519 29" stroke="#101010" stroke-width="4" stroke-linecap="round" stroke-linejoin="round" fill="none"></path><path d="M24 38V44" stroke="#101010" stroke-width="4" stroke-linecap="round" stroke-linejoin="round" fill="none"></path><path d="M42 42L6 6" stroke="#101010" stroke-width="4" stroke-linecap="round" stroke-linejoin="round" fill="none"></path>
  </svg>