<svg xmlns="http://www.w3.org/2000/svg" viewBox="0 0 32 32" width="24" height="24" style="border-color: rgba(187,187,187,1);border-width: 0px;border-style: solid" filter="none">
    <path d="M23.488 2.24h-4.256v-0.736c0-0.832-0.672-1.504-1.504-1.504h-3.456c-0.832 0-1.536 0.672-1.536 1.504v0.736h-4.256c-1.925 0.005-3.483 1.563-3.488 3.488v22.784c0.005 1.925 1.563 3.483 3.488 3.488h15.008c1.952 0 3.52-1.568 3.52-3.488v-22.784c0-1.92-1.568-3.488-3.52-3.488zM16 0.672c0.416 0 0.768 0.352 0.768 0.768s-0.352 0.768-0.768 0.768c-0.416 0-0.768-0.352-0.768-0.768s0.352-0.768 0.768-0.768zM11.904 4.384h8.192v3.2h-8.192v-3.2zM23.488 29.984h-15.008c-0.8 0-1.472-0.672-1.472-1.472v-22.784c0-0.8 0.672-1.504 1.472-1.504h1.44v3.584c0 0.96 0.8 1.76 1.76 1.76h8.64c0.96 0 1.76-0.8 1.76-1.76v-3.584h1.408c0.832 0 1.504 0.704 1.504 1.504v22.784c0 0.8-0.672 1.472-1.504 1.472zM12.544 12.928l-0.352 0.416c-0.119-0.302-0.408-0.512-0.746-0.512-0.008 0-0.015 0-0.023 0l0.001-0h-2.304c-0.448 0-0.832 0.352-0.832 0.8v2.56c0 0.448 0.384 0.832 0.832 0.832h2.304c0.456-0.008 0.824-0.376 0.832-0.831v-1.377l1.056-1.248c0.16-0.224 0.16-0.544-0.064-0.704s-0.512-0.16-0.704 0.064zM11.712 16.192c0 0.16-0.128 0.288-0.256 0.288h-2.336c-0 0-0.001 0-0.001 0-0.159 0-0.287-0.128-0.287-0.287 0-0 0-0.001 0-0.001v0-2.56c0-0.16 0.128-0.256 0.288-0.256h2.336c0.128 0 0.256 0.096 0.256 0.256v0.288l-0.672 0.8c-0.192 0.224-0.48 0.224-0.704 0.032l-0.416-0.384c-0.192-0.192-0.512-0.16-0.704 0.032s-0.16 0.512 0.032 0.704l1.184 1.088c0.075 0.079 0.181 0.129 0.298 0.129 0.008 0 0.015-0 0.023-0.001l-0.001 0h0.032c0.16 0 0.256-0.064 0.352-0.16l0.576-0.704v0.736zM12.544 18.368l-0.384 0.448c-0.137-0.25-0.399-0.416-0.699-0.416-0.002 0-0.004 0-0.005 0h-2.336c-0.448 0-0.8 0.352-0.8 0.8v2.56c0 0.448 0.352 0.8 0.8 0.8h2.336c0.416 0 0.8-0.352 0.8-0.8v-1.504l1.056-1.248c0.16-0.224 0.16-0.544-0.064-0.704-0.224-0.192-0.512-0.16-0.704 0.064zM11.712 21.76c0 0.16-0.128 0.256-0.256 0.256h-2.336c-0.16 0-0.288-0.096-0.288-0.256v-2.56c0-0.16 0.128-0.288 0.288-0.288h2.336c0.128 0 0.256 0.128 0.256 0.288v0.16l-0.672 0.8c-0.192 0.224-0.48 0.224-0.704 0.032l-0.416-0.384c-0.192-0.192-0.512-0.16-0.704 0.032s-0.16 0.512 0.032 0.704l1.184 1.088c0.075 0.079 0.181 0.129 0.298 0.129 0.008 0 0.015-0 0.023-0.001l-0.001 0h0.032c0.16 0 0.256-0.064 0.352-0.16l0.576-0.672v0.832zM12.544 23.84l-0.416 0.48c-0.125-0.248-0.377-0.416-0.669-0.416-0.001 0-0.002 0-0.003 0h-2.336c-0.448 0-0.8 0.352-0.8 0.8v2.56c0 0.448 0.352 0.832 0.8 0.832h2.336c0.416 0 0.8-0.384 0.8-0.832v-1.536l1.056-1.248c0.16-0.224 0.16-0.544-0.064-0.704-0.224-0.192-0.512-0.16-0.704 0.064zM11.712 27.264c0 0.16-0.128 0.288-0.256 0.288h-2.336c-0 0-0.001 0-0.001 0-0.159 0-0.287-0.128-0.287-0.287 0-0 0-0.001 0-0.001v0-2.56c0-0.16 0.128-0.256 0.288-0.256h2.336c0.128 0 0.256 0.096 0.256 0.256v0.128l-0.672 0.8c-0.092 0.099-0.223 0.161-0.368 0.161-0.129 0-0.247-0.049-0.336-0.129l0 0-0.416-0.384c-0.192-0.192-0.512-0.16-0.704 0.032s-0.16 0.512 0.032 0.704l1.184 1.088c0.075 0.079 0.181 0.129 0.298 0.129 0.008 0 0.015-0 0.023-0.001l-0.001 0h0.032c0.16 0 0.256-0.064 0.352-0.192l0.576-0.672v0.896zM23.36 14.56h-8.096c-0.288 0-0.512 0.224-0.512 0.512s0.224 0.512 0.512 0.512h8.096c0.256 0 0.48-0.224 0.48-0.512s-0.224-0.512-0.48-0.512zM23.36 19.488h-8.096c-0.288 0-0.512 0.224-0.512 0.48 0 0.288 0.224 0.512 0.512 0.512h8.096c0.256 0 0.48-0.224 0.48-0.512-0.007-0.262-0.218-0.473-0.479-0.48h-0.001zM23.36 24.384h-8.096c-0.288 0-0.512 0.224-0.512 0.48s0.224 0.512 0.512 0.512h8.096c0.256 0 0.48-0.224 0.48-0.512-0.007-0.262-0.218-0.473-0.479-0.48h-0.001z"></path>
  </svg>